<svg width="23" height="22" xmlns="http://www.w3.org/2000/svg"><g fill="none" fill-rule="evenodd"><rect fill="#F44747" fill-rule="nonzero" x="5" width="18" height="22" rx="3"/><rect fill="#F44747" fill-rule="nonzero" y="7" width="19" height="10" rx="2"/><path d="M5.29 15.078H2v-5.71h3.29v.991H3.21v1.254h1.935v.992H3.21v1.473h2.078v1zm1.991-2.23L5.875 10.71h1.352l.847 1.39.856-1.39h1.351L8.86 12.848l1.489 2.23H8.992l-.918-1.496-.922 1.496H5.801l1.48-2.23zm5.504 2.308c-1.36 0-2.039-.746-2.039-2.238 0-.742.185-1.31.555-1.701.37-.392.9-.588 1.59-.588.505 0 .958.099 1.359.297l-.352.922a6.013 6.013 0 0 0-.523-.186 1.687 1.687 0 0 0-.484-.072c-.62 0-.93.44-.93 1.32 0 .854.31 1.281.93 1.281.229 0 .441-.03.636-.091.196-.062.391-.157.586-.287v1.019a1.92 1.92 0 0 1-.584.254 3.27 3.27 0 0 1-.744.07zm4.149-3.68c-.253 0-.45.08-.594.24-.143.161-.225.388-.246.682h1.672c-.006-.294-.082-.521-.23-.681-.15-.16-.35-.24-.602-.24zm.168 3.68c-.704 0-1.253-.194-1.649-.582-.396-.388-.594-.937-.594-1.648 0-.732.183-1.298.55-1.697.365-.4.87-.6 1.517-.6.617 0 1.097.176 1.441.527.344.352.516.837.516 1.457v.578h-2.817c.013.339.114.603.301.793.188.19.45.286.79.286a3.276 3.276 0 0 0 1.48-.344v.922a2.798 2.798 0 0 1-.668.232c-.237.05-.526.076-.867.076zm3.941-.078h-1.191V9h1.191v6.078z" fill="#FFF"/></g></svg>