<svg id="Слой_1" data-name="Слой 1" xmlns="http://www.w3.org/2000/svg" viewBox="0 0 56.3059 56.304"><defs><style>.cls-1{fill:#60497c;}.cls-2{fill:#fff;}.cls-3{fill:#402b52;}</style></defs><title>logo-chop</title><path class="cls-1" d="M240.622,695.321a28.1464,28.1464,0,1,1-34.294-20.206,28.1484,28.1484,0,0,1,34.294,20.206" transform="translate(-185.2174 -674.2125)"/><path class="cls-2" d="M236.298,694.476c2.231,8.62-1.8,17.1151-8.998,18.976s-14.84-3.62-17.067-12.24,1.8-17.116,8.998-18.976c7.201-1.86,14.84,3.621,17.067,12.24" transform="translate(-185.2174 -674.2125)"/><path class="cls-3" d="M233.591,696.151c1.883,7.287-1.522,14.467-7.606,16.0391s-12.545-3.059-14.429-10.345,1.522-14.467,7.607-16.041c6.084-1.572,12.544,3.061,14.428,10.3469" transform="translate(-185.2174 -674.2125)"/><path class="cls-1" d="M226.834,697.9951c1.222,4.742-.994,9.417-4.957,10.442s-8.166-1.992-9.392-6.735c-1.225-4.745.995-9.422,4.953-10.443,3.962-1.025,8.167,1.991,9.396,6.736" transform="translate(-185.2174 -674.2125)"/></svg>