<svg version="1.2" baseProfile="tiny" xmlns="http://www.w3.org/2000/svg" viewBox="0 0 762.5 130.4"><path fill="#80BC22" d="M95.4 50.6c-9.7 6.8-21 17.2-30.4 32.5-.1-.4-.5-1.4-.6-1.6C62 75 51.3 49.9 29.5 38.1c-.6-.4-.2-1.3.5-1.1 9.6 3.1 27.2 11.4 35.7 31.3.7 1.6 3.1 1.5 3.6-.2.7-2.1 1.2-4.5 1.4-7 1.2-10.9-2.4-25.2-14.3-34.8-11.8-9.8-26.5-10.5-37-7.2-10.7 3.3-17.2 10.6-18 16.7-1.5 12.6 11.4 19.5 22.9 29.6 5.7 5 11.8 10.4 18.3 14.2 2.3 1.3 4.8 2.5 7.5 3 2.4.4 4.8-.2 7.2.2 5.3.9 3.4 4.4 2.2 8.3-1.3 4-2.7 8-4.2 12-.4.9-.1 2 .8 2.6l.4.3c1.2.9 3 .4 3.5-1.1 2.9-8.6 13.3-34 38.1-50.7.8-.5 1.2-1.5.9-2.5-.5-1.6-2.2-2.1-3.6-1.1z"/><ellipse transform="rotate(-14.488 115.976 41.236)" fill="#472968" cx="116" cy="41.2" rx="39.9" ry="39.9"/><ellipse transform="rotate(-14.488 130.009 34.827)" fill="#FFF" cx="130" cy="34.8" rx="19.1" ry="22.9"/><ellipse transform="rotate(-14.488 129.027 36.462)" fill="#250F3B" cx="129" cy="36.5" rx="16.1" ry="19.3"/><ellipse transform="rotate(-14.488 124.892 37.667)" fill="#472968" cx="124.9" cy="37.7" rx="10.5" ry="12.6"/><path d="M190.8 41.5c0 8.3 5.3 12.3 13.3 12.3 3.7 0 7.5-.6 10.2-1.8V21.4h6.5c1.8 0 2.6.6 2.6 2v53.9h-6.5c-1.8 0-2.6-.6-2.6-2V59.1c-3 1.6-7.5 2.5-11.9 2.5-11.8 0-20.8-7.3-20.8-19.7V21.7c1.9-.6 4.1-.9 6.4-.9 1.9 0 2.7.6 2.7 2v18.7zm71.9 30.7c0 2.6-5.1 6-13.1 6-12.5 0-21.4-9.3-21.4-22.1 0-14.1 9.7-22.4 21.4-22.4 10.2 0 17.1 6.7 17.1 15.5 0 2.6-.6 5.1-1.4 6.8-1.3 2.6-3 3.5-6.3 3.5h-22c1 7.7 6.5 11.4 14 11.4 3.8 0 7-.7 10.4-2.4.7.8 1.3 2.4 1.3 3.7zm-25.6-19.9h20.5c.4-.8.6-1.8.6-2.6 0-5.3-3.2-8.6-9.1-8.6-6.5-.1-11 4.1-12 11.2zm33.2-17.4c2-.6 4.1-.8 6-.8 1.8 0 2.6.6 2.6 2v5.5c3-4.9 8.2-7.9 14-7.9 10.3 0 18.4 7.8 18.4 20.7 0 14.5-10.1 23.9-21.2 23.9-4.2 0-8.2-1.4-11.1-4.1v13.7h-6.1c-1.8 0-2.6-.6-2.6-2v-51zm8.6 16.2v16.4c2.6 2.5 6 3.4 9.6 3.4 8.1 0 14-6.7 14-16.2 0-8.4-4.2-13.7-11.6-13.7-4.9-.1-9.6 3-12 10.1zm66.4 26.1c-1.8 0-2.6-.6-2.6-2V58.8h-18.9v18.4h-6.1c-1.8 0-2.6-.6-2.6-2V34.9c2-.6 4.1-.8 6-.8 1.8 0 2.6.6 2.6 2v15.6h18.9v-17h6.1c1.8 0 2.6.6 2.6 2v40.6h-6zm49.7 0h-6c-1.8 0-2.6-.6-2.6-2V48l-20 28.5c-.6.9-1.4 1.3-2.7 1.3-1.4 0-4.1-1-5.9-2.6V34.9c2-.6 4.1-.8 6-.8 1.8 0 2.6.6 2.6 2v27.8l20-28.5c.6-.9 1.4-1.3 2.7-1.3 1.4 0 4.1 1 5.9 2.6v40.5zm9 0c-1.8 0-2.6-.6-2.6-2V34.9c2-.6 4.1-.8 6-.8 1.8 0 2.6.6 2.6 2v17.6c7.2-4.3 16-12.1 20.8-19.6 4.5 1.6 5.8 2.9 5.8 4.8 0 .6-.2 1.2-.5 1.9-1.8 3.5-7.2 8.9-14.1 14 3 4.5 7.6 10.3 10.6 13.3 2.3 2.3 3.4 2.8 4.7 2.8h1.6c.3 1 .5 1.9.5 3 0 1.8-2.2 3.9-6 3.9-2.8 0-5.7-1.5-9.4-6-3.1-3.8-6.3-8.5-8.7-12.7-1.7 1-3.7 2.2-5.3 3v15.1h-6zm76-6.3c.3 1 .5 1.9.5 3 0 1.8-2.2 3.9-6 3.9-3.1 0-6.5-2-7.5-6.9-2.7 4.5-7.6 7.3-13.5 7.3-8.5 0-14.4-5.4-14.4-13.3 0-8.8 6.7-14 17.2-14 3.6 0 8 .9 10.4 2.2v-2.7c0-6.1-3.8-9.3-12-9.3-3.8 0-7.4.7-10.8 2.4-.6-.8-1.2-2.5-1.2-3.8 0-2.6 6-6 14.3-6 11.4 0 18.3 5.7 18.3 17v16c0 3.3 1.1 4.2 3 4.2h1.7zm-13.4-6.7v-4.9c-1.9-.7-6.4-1.1-9.1-1.1-6.3 0-9.8 2.2-9.8 6.4s3.4 6.2 7.9 6.2c4.3.1 8.9-2.4 11-6.6zm17.5-12.1c0-3.4 2.2-5.4 5.3-5.4 3 0 5.7 2.2 5.7 5.9 0 3.4-2.2 5.4-5.3 5.4-3 0-5.7-2.2-5.7-5.9zm46.4-31.7c14.4 0 26.5 9.8 26.5 28.9s-12.1 28.9-26.5 28.9S504 68.4 504 49.3s12.1-28.9 26.5-28.9zm-.5 7.8c-8.4 0-16.8 6.1-16.8 20.4 0 13.6 8 21.8 17.7 21.8 8.4 0 16.8-6.1 16.8-20.4 0-13.5-8-21.8-17.7-21.8zm67.5 49h-6.1c-1.8 0-2.6-.6-2.6-2V41.8H570v35.4h-6.1c-1.8 0-2.6-.6-2.6-2V34.6H595c1.8 0 2.6.6 2.6 2v40.6zm19.4 0c-1.8 0-2.6-.6-2.6-2V41.8H602c-1.4 0-2-.7-2-2.6 0-1.4.2-3.2.6-4.6h34.6c1.4 0 2 .7 2 2.6v4.6H623v35.4h-6.1zm60.2 0H671c-1.8 0-2.6-.6-2.6-2V48l-20 28.5c-.6.9-1.4 1.3-2.7 1.3-1.4 0-4.1-1-5.9-2.6V34.9c2-.6 4.1-.8 6-.8 1.8 0 2.6.6 2.6 2v27.8l20-28.5c.6-.9 1.4-1.3 2.7-1.3 1.4 0 4.1 1 5.9 2.6v40.5zm8.9 0c-1.8 0-2.6-.6-2.6-2V34.9c2-.6 4.1-.8 6-.8 1.8 0 2.6.6 2.6 2v17.6c7.2-4.3 16-12.1 20.8-19.6 4.5 1.6 5.8 2.9 5.8 4.8 0 .6-.2 1.2-.5 1.9-1.8 3.5-7.2 8.9-14.1 14 3 4.5 7.6 10.3 10.6 13.3 2.3 2.3 3.4 2.8 4.7 2.8h1.6c.3 1 .5 1.9.5 3 0 1.8-2.2 3.9-6 3.9-2.8 0-5.7-1.5-9.4-6-3.1-3.8-6.3-8.5-8.7-12.7-1.7 1-3.7 2.2-5.3 3v15.1h-6zm76-6.3c.3 1 .5 1.9.5 3 0 1.8-2.2 3.9-6 3.9-3.1 0-6.5-2-7.5-6.9-2.7 4.5-7.6 7.3-13.5 7.3-8.5 0-14.4-5.4-14.4-13.3 0-8.8 6.7-14 17.2-14 3.6 0 8 .9 10.4 2.2v-2.7c0-6.1-3.8-9.3-12-9.3-3.8 0-7.4.7-10.8 2.4-.6-.8-1.2-2.5-1.2-3.8 0-2.6 6-6 14.3-6 11.4 0 18.3 5.7 18.3 17v16c0 3.3 1.1 4.2 3 4.2h1.7zm-13.3-6.7v-4.9c-1.9-.7-6.4-1.1-9.1-1.1-6.3 0-9.8 2.2-9.8 6.4s3.4 6.2 7.9 6.2c4.3.1 8.9-2.4 11-6.6zm-516.1 55h-2.8V99.7h-11.4v19.6h-2.8V97.4h17v21.8zm13.9.5c-5.5 0-8.4-3.4-8.4-8.9s2.9-8.9 8.4-8.9 8.4 3.4 8.4 8.9c-.1 5.5-3 8.9-8.4 8.9zm-5.6-8.9c0 4.2 1.7 6.8 5.6 6.8 3.9 0 5.6-2.6 5.6-6.8 0-4.2-1.7-6.8-5.6-6.8-3.9 0-5.6 2.7-5.6 6.8zm32.1 8.4h-2.7v-14.6h-6.6c0 10.1-1.2 15-5.6 15h-.7v-2.1h.3c2.7 0 3.5-4.1 3.5-15H273v16.7zm19.7-2.8s-1.7 3.3-6.8 3.3c-5 0-8.3-2.8-8.3-8.5s3.1-9.2 8.1-9.2c4.5 0 7 3 7 7.8 0 1.2-.3 1.8-.3 1.8h-12.1v.1c0 3.8 2.1 6 5.7 6 3.5 0 5-2.2 5-2.2l1.7.9zm-12.2-6.8h9.8v-.4c0-3.1-1.5-5.1-4.6-5.1-3.3-.1-5 2.3-5.2 5.5zm15.4-5s1.1-2.6 5.8-2.6c4.1 0 6.3 1.9 6.3 4.5 0 1.9-1 3.1-2.1 3.8 1.6.7 2.9 2 2.9 4.2 0 3.1-2.3 5.3-7.1 5.3-5.6 0-6.6-2.8-6.6-2.8l1.3-1.5s1.1 2.3 5.2 2.3c3.3 0 4.5-1.5 4.5-3.4 0-1.7-1.4-2.8-3.8-2.8h-3.2v-1.8h3.3c.4 0 3.1-.3 3.1-2.9 0-1.6-1.3-2.8-4.1-2.8-3.1 0-4 1.7-4 1.7l-1.5-1.2zm17.6-2.2h2.7v7h9v-7h2.7v16.8h-2.7v-7.5h-9v7.5h-2.7v-16.8zm30.1 14.3c-.3.8-1.6 3-5.3 3-3.8 0-5.9-1.8-5.9-4.8 0-4.9 7.2-6 11.3-6.3v-.5c0-2.8-1.2-4.1-4.1-4.1-3.1 0-4.4 1.8-4.4 1.8l-1.5-1.3s1.5-2.6 6.2-2.6c4.4 0 6.5 1.9 6.5 6.1v11.2H344l-.4-2.5zm0-2v-4.2c-3.9.3-8.5 1.1-8.5 4.1 0 2 1.3 3.1 4 3.1 3.4.1 4.4-2.7 4.5-3zm34.6 9.3h-2.1l-.1-4.8h-14.4l-.2 4.8h-1.9l-.1-6.9h2.3c1.6-3.9 2.1-8.2 2.1-14.7h12v14.7h2.8l-.4 6.9zm-14-6.9h9v-12.6h-7.1c0 5.2-.5 9.1-1.9 12.6zm32 2.1h-2.7v-14.6h-6.6c0 10.1-1.2 15-5.6 15h-.7v-2.1h.3c2.7 0 3.5-4.1 3.5-15h11.8v16.7zm18.5 0H412v-6.4h-4.4l-3.5 6.4h-2.9l3.8-6.7c-2.6-.7-3.9-2.4-3.9-4.9 0-3.4 2.1-5.2 6.9-5.2h6.6v16.8zm-8.3-8.4c.6.1 1.1.2 1.7.2h3.8v-6.6h-3.6c-3.2 0-4.6 1.1-4.6 3.3 0 1.6.8 2.6 2.4 3.1h.3zm22.5-6.2s1.1-2.6 5.8-2.6c4.1 0 6.3 1.9 6.3 4.5 0 1.9-1 3.1-2.1 3.8 1.6.7 2.9 2 2.9 4.2 0 3.1-2.3 5.3-7.1 5.3-5.6 0-6.6-2.8-6.6-2.8l1.3-1.5s1.1 2.3 5.2 2.3c3.3 0 4.5-1.5 4.5-3.4 0-1.7-1.4-2.8-3.8-2.8h-3.2v-1.8h3.3c.4 0 3.1-.3 3.1-2.9 0-1.6-1.3-2.8-4.1-2.8-3.1 0-4 1.7-4 1.7l-1.5-1.2zm17.6-2.2h2.4l.2 2.4c.4-.7 1.8-2.8 5.6-2.8 4.6 0 7.6 3.1 7.6 8.4 0 5.5-2.8 9.3-8 9.3-3.7 0-5.2-2.1-5.2-2.1v10h-2.7v-25.2zm2.6 4.8v8.2c.2.3 1.3 2.2 4.3 2.2 4.3 0 6.1-2.7 6.1-7.2 0-4.4-2.1-6.3-5.7-6.3-3.4 0-4.6 2.8-4.7 3.1zm31.4 9.2s-1.7 3.3-6.8 3.3c-5 0-8.3-2.8-8.3-8.5s3.1-9.2 8.1-9.2c4.5 0 7 3 7 7.8 0 1.2-.3 1.8-.3 1.8h-12.1v.1c0 3.8 2.1 6 5.7 6 3.5 0 5-2.2 5-2.2l1.7.9zm-12.2-6.8h9.8v-.4c0-3.1-1.5-5.1-4.6-5.1-3.3-.1-5 2.3-5.2 5.5zm16.6-7.2h2.7v7h9v-7h2.7v16.8h-2.7v-7.5h-9v7.5h-2.7v-16.8zm20.5 0h2.7v12.7l9.6-12 .2-.7h2.4v16.8h-2.7v-12.5l-9.6 12-.2.5h-2.4v-16.8zm33.3 16.8H536v-6.4h-4.4l-3.5 6.4h-2.9l3.8-6.7c-2.6-.7-3.9-2.4-3.9-4.9 0-3.4 2.1-5.2 6.9-5.2h6.6v16.8zm-8.2-8.4c.6.1 1.1.2 1.7.2h3.8v-6.6h-3.6c-3.2 0-4.6 1.1-4.6 3.3 0 1.6.8 2.6 2.4 3.1h.3z" fill="#341952"/></svg>