<svg xmlns="http://www.w3.org/2000/svg" xmlns:xlink="http://www.w3.org/1999/xlink" width="36" height="27"><defs><path id="A" d="M118.04 2950.27a.9.9 0 0 0 .24.67.84.84 0 0 0 .65.27.87.87 0 0 0 .87-.87.89.89 0 0 0-.84-.9.88.88 0 0 0-.91.83zm2.38 1.46h-.64v-.36a1.1 1.1 0 0 1-.92.44c-.85 0-1.53-.7-1.53-1.55s.68-1.54 1.53-1.54a1.13 1.13 0 0 1 .92.43v-.36h.64zm21.5-1.46a.89.89 0 0 0 .9.94.9.9 0 1 0-.9-.94zm3.38 1.25v.08h.1v-.06h-.04zm.06-.05c.03 0 .06 0 .08.02s.03.04.03.07c0 .02 0 .04-.02.05a.1.1 0 0 1-.07.03l.1.1h-.08l-.08-.1h-.03v.1h-.06v-.27zm.07.36a.23.23 0 0 0 .07-.05.24.24 0 0 0 0-.32.21.21 0 0 0-.25-.05.22.22 0 0 0-.07.05.24.24 0 0 0 0 .32.23.23 0 0 0 .17.07l.08-.02zm.02-.5a.3.3 0 0 1 .16.16.3.3 0 0 1-.27.42.3.3 0 0 1-.27-.42.3.3 0 0 1 .16-.16.29.29 0 0 1 .12-.01.3.3 0 0 1 .1.02zm-1.17.4h-.6v-.36a1.1 1.1 0 0 1-.92.44c-.85 0-1.53-.7-1.53-1.55s.68-1.54 1.53-1.54a1.13 1.13 0 0 1 .92.43v-1.54h.6zm-15.97-2.44a.76.76 0 0 0-.78.72h1.53a.73.73 0 0 0-.74-.72zm.02-.56c.82 0 1.4.6 1.4 1.54v.25h-2.18c.05.44.43.76.87.72.3 0 .6-.12.85-.3l.3.47a1.7 1.7 0 0 1-1.22.4 1.54 1.54 0 1 1-.04-3.08zm7.68 1.54a.9.9 0 0 0 .24.67c.17.18.4.28.65.28a.9.9 0 0 0 .88-.89.9.9 0 0 0-.85-.9.89.89 0 0 0-.92.84zm2.37 1.46h-.64v-.36a1.1 1.1 0 0 1-.92.44c-.84 0-1.53-.7-1.53-1.55a1.54 1.54 0 0 1 1.53-1.54 1.13 1.13 0 0 1 .92.43v-.36h.64zm-5.97-1.48a1.5 1.5 0 0 1 1.57-1.54c.38-.02.75.1 1.05.35l-.3.52a1.28 1.28 0 0 0-.77-.27.94.94 0 0 0-.87.95c0 .5.38.9.87.94.27 0 .54-.1.76-.26l.3.5a1.47 1.47 0 0 1-1.04.36 1.47 1.47 0 0 1-1.57-1.55zm8.2-1.54c.15 0 .3.03.45.08l-.2.6a1.03 1.03 0 0 0-.4-.07c-.4 0-.6.27-.6.76v1.64h-.64v-2.94h.63v.36a.86.86 0 0 1 .77-.43zm-17.32.84a2.03 2.03 0 0 0-.93-.26c-.35 0-.56.15-.56.35s.22.25.5.3l.3.04c.65.1 1.04.32 1.04.9 0 .56-.5.96-1.34.96-.46.01-.9-.12-1.28-.38l.3-.5c.28.2.63.3.98.3.43 0 .67-.13.67-.35 0-.17-.17-.26-.52-.3l-.3-.05c-.66-.1-1.02-.38-1.02-.87 0-.58.5-.94 1.23-.94.42-.01.84.1 1.2.3zm8.47-.84c.16 0 .3.03.45.08l-.2.6a1.03 1.03 0 0 0-.39-.07c-.4 0-.6.27-.6.76v1.64h-.64v-2.94h.63v.36a.86.86 0 0 1 .77-.43zm-5.42.67h-1.04v1.35c0 .3.12.5.42.5a1 1 0 0 0 .56-.17l.18.55c-.23.15-.5.23-.8.23-.75 0-1-.4-1-1.1v-1.35h-.6v-.6h.6v-.9h.64v.9h1.04zm-10.16 2.38v-1.65c0-.5-.2-.77-.64-.77a.69.69 0 0 0-.54.22.7.7 0 0 0-.18.56v1.64h-.64v-1.65c0-.5-.22-.77-.64-.77a.68.68 0 0 0-.54.22.7.7 0 0 0-.18.56v1.62h-.64v-2.95h.64v.37a.97.97 0 0 1 .85-.44c.4-.02.77.18.97.52.23-.35.62-.55 1.03-.52a1.1 1.1 0 0 1 .84.32c.22.23.33.54.3.85v1.85z"/><path id="B" d="M123.12 2944.43v-17.06h9.7v17.06z"/><path id="C" d="M123.74 2935.9c0-3.33 1.56-6.47 4.23-8.53a11.24 11.24 0 0 0-14.98 1.17 10.69 10.69 0 0 0 0 14.72 11.24 11.24 0 0 0 14.98 1.17 10.75 10.75 0 0 1-4.23-8.53z"/><path id="D" d="M145.9 2935.9c0 4.16-2.43 7.95-6.24 9.76a11.27 11.27 0 0 1-11.69-1.23 10.77 10.77 0 0 0 4.23-8.53c0-3.33-1.56-6.47-4.23-8.53a11.27 11.27 0 0 1 11.69-1.23 10.83 10.83 0 0 1 6.23 9.76z"/><path id="E" d="M145.54 2942.7v-.5h-.1l-.14.35-.13-.35h-.1v.5h.08v-.38l.12.33h.1l.12-.33v.38zm-.7 0v-.4h.14v-.1h-.37v.1h.16v.4z"/></defs><g transform="translate(-110 -2925)"><use fill="#231f20" xlink:href="#A"/><use fill="#ff5f00" xlink:href="#B"/><use fill="#eb001b" xlink:href="#C"/><g fill="#f79e1b"><use xlink:href="#D"/><use xlink:href="#E"/></g></g></svg>