<svg xmlns="http://www.w3.org/2000/svg" width="95.44" height="95.441"><path d="M47.721 11.712C21.366 11.712 0 33.281 0 59.888c0 14.427 6.226 23.836 6.226 23.836l82.97.004s6.244-10.283 6.244-23.841c0-26.606-21.366-48.175-47.719-48.175zm37.975 66.147l-75.799-.033s-4.039-7.649-4.039-18.09c0-23.32 18.814-42.226 42.023-42.226 23.208 0 42.023 18.905 42.023 42.226.001 10.559-4.208 18.123-4.208 18.123z"/><path d="M61.207 24.505l-.599-.001-12.729 24.943-13.187-25.156-18.055 45.445h-4.666v3.65h25.562v-3.65h-5.072l5.072-14.203 10.346 17.853 9.941-17.853 5.071 14.203H57.82v3.65h25.358v-3.65h-4.393z"/></svg>