<svg xmlns="http://www.w3.org/2000/svg" xmlns:xlink="http://www.w3.org/1999/xlink" width="23" height="22"><defs><path id="a" d="M584 377a3 3 0 0 1 3-3h12a3 3 0 0 1 3 3v16a3 3 0 0 1-3 3h-12a3 3 0 0 1-3-3z"/><path id="b" d="M579 383c0-1.1.9-2 2-2h15a2 2 0 0 1 2 2v6a2 2 0 0 1-2 2h-15a2 2 0 0 1-2-2z"/><path id="c" d="M593.75 389h-1.25v-6h3.44v1.04h-2.19v1.55h2.04v1.04h-2.04zm-3.82-3.02c0-1.3-.56-1.94-1.7-1.94h-.68v3.9h.55c1.22 0 1.83-.65 1.83-1.96zm1.33-.04c0 .99-.29 1.75-.85 2.27-.56.53-1.37.79-2.43.79h-1.7v-6h1.88c.98 0 1.74.26 2.28.78.54.51.82 1.24.82 2.16zm-6.11-1.07c0 .65-.2 1.14-.61 1.48-.4.34-.98.52-1.72.52h-.55V389H581v-6h1.92c.72 0 1.28.16 1.66.47.38.31.57.78.57 1.4zm-2.88.95h.42c.4 0 .68-.07.88-.23.2-.15.29-.38.29-.67 0-.3-.08-.52-.24-.66-.17-.15-.42-.22-.77-.22h-.58z"/></defs><use fill="#f44747" xlink:href="#a" transform="translate(-579 -374)"/><use fill="#f44747" xlink:href="#b" transform="translate(-579 -374)"/><use fill="#fff" xlink:href="#c" transform="translate(-579 -374)"/></svg>